<?xml version="1.0" encoding="utf-8"?>
<!-- Generator: Adobe Illustrator 18.1.1, SVG Export Plug-In . SVG Version: 6.00 Build 0)  -->
<svg version="1.1" id="Layer_1" xmlns="http://www.w3.org/2000/svg" xmlns:xlink="http://www.w3.org/1999/xlink" x="0px" y="0px"
	 viewBox="141.7 355 224.1 150.6" enable-background="new 141.7 355 224.1 150.6" xml:space="preserve">
<g>
	<path fill="#3E7D9B" d="M155.4,464.7c-0.7,0-1.3,0.2-1.8,0.5c-0.5,0.3-0.9,0.7-1.2,1.3c-0.3,0.5-0.5,1.2-0.6,1.9
		c-0.1,0.7-0.2,1.6-0.2,2.4c-2.5,0-4.4-0.3-5.7-0.9c-1.3-0.6-1.9-1.5-1.9-2.9c0-1,0.3-1.9,0.9-2.6c0.6-0.7,1.4-1.3,2.5-1.8
		c1.1-0.5,2.3-0.8,3.7-1c1.4-0.2,2.9-0.3,4.5-0.3c2,0,3.7,0.2,5.2,0.5c1.5,0.3,2.7,0.9,3.7,1.6c1,0.8,1.7,1.7,2.2,3
		c0.5,1.2,0.7,2.7,0.7,4.5v14.3c0,0.8,0.1,1.4,0.2,1.9c0.1,0.5,0.3,0.9,0.6,1.2c0.3,0.3,0.6,0.5,1,0.6c0.4,0.1,1,0.2,1.6,0.2h0.2v3
		h-10.5l-1.2-3.9h-0.5c-0.6,0.8-1.2,1.4-1.8,2c-0.5,0.6-1.1,1-1.8,1.4c-0.6,0.4-1.3,0.6-2.1,0.8c-0.8,0.2-1.7,0.3-2.8,0.3
		c-1.2,0-2.4-0.2-3.5-0.6c-1.1-0.4-2-0.9-2.8-1.7c-0.8-0.8-1.4-1.7-1.9-2.9c-0.5-1.1-0.7-2.5-0.7-4.1c0-3.1,1-5.3,3.1-6.8
		c2.1-1.5,5.3-2.3,9.5-2.4l4.6-0.2v-3.1c0-0.9,0-1.8-0.1-2.6c-0.1-0.8-0.2-1.5-0.5-2c-0.2-0.6-0.6-1-1.1-1.3
		C156.8,464.8,156.2,464.7,155.4,464.7z M150.4,483.7c0,1.6,0.3,2.8,0.8,3.6s1.3,1.2,2.4,1.2c0.8,0,1.5-0.2,2.2-0.5
		c0.6-0.3,1.2-0.8,1.7-1.4c0.5-0.6,0.8-1.4,1.1-2.3c0.2-0.9,0.4-1.9,0.4-3v-4.2l-2.5,0.2c-1.1,0.1-2.1,0.2-2.8,0.5
		c-0.8,0.3-1.4,0.7-1.8,1.2c-0.5,0.5-0.8,1.2-1,1.9C150.5,481.8,150.4,482.7,150.4,483.7z"/>
</g>
<g>
	<path fill="#3E7D9B" d="M183.8,492.7c-2.1,0-4-0.3-5.7-0.8c-1.7-0.5-3.2-1.4-4.4-2.6c-1.2-1.2-2.2-2.8-2.9-4.8c-0.7-2-1-4.4-1-7.3
		c0-3,0.4-5.6,1.1-7.6c0.7-2,1.7-3.7,2.9-4.9c1.2-1.2,2.7-2.1,4.4-2.6c1.7-0.5,3.5-0.8,5.4-0.8c1.8,0,3.4,0.1,4.8,0.5
		c1.4,0.3,2.6,0.7,3.5,1.2c0.9,0.5,1.6,1.2,2.1,1.9c0.5,0.7,0.7,1.5,0.7,2.3c0,0.6-0.1,1.2-0.3,1.8c-0.2,0.6-0.6,1.1-1.1,1.5
		c-0.5,0.4-1.3,0.8-2.2,1.1c-0.9,0.3-2.1,0.4-3.6,0.4c0-1-0.1-1.9-0.2-2.8s-0.3-1.6-0.6-2.3s-0.6-1.2-1.1-1.6
		c-0.5-0.4-1.1-0.6-1.8-0.6c-0.8,0-1.6,0.2-2.2,0.6c-0.7,0.4-1.2,1.1-1.7,2c-0.5,1-0.8,2.2-1.1,3.8c-0.2,1.6-0.4,3.6-0.4,6
		c0,3.8,0.5,6.7,1.6,8.5c1,1.9,2.7,2.8,5.1,2.8c1,0,1.9-0.1,2.7-0.3s1.6-0.5,2.3-1c0.7-0.4,1.3-0.9,1.8-1.5s0.9-1.2,1.3-1.8
		c0.5,0.3,0.8,0.6,1,1.1c0.2,0.5,0.3,1,0.3,1.5c0,0.7-0.2,1.4-0.6,2.2c-0.4,0.7-1.1,1.4-2,2c-0.9,0.6-2,1.1-3.4,1.5
		C187.4,492.5,185.7,492.7,183.8,492.7z"/>
</g>
<g>
	<path fill="#3E7D9B" d="M209.8,464.7c-0.7,0-1.3,0.2-1.8,0.5c-0.5,0.3-0.9,0.7-1.2,1.3c-0.3,0.5-0.5,1.2-0.6,1.9
		c-0.1,0.7-0.2,1.6-0.2,2.4c-2.5,0-4.4-0.3-5.7-0.9c-1.3-0.6-1.9-1.5-1.9-2.9c0-1,0.3-1.9,0.9-2.6c0.6-0.7,1.4-1.3,2.5-1.8
		c1.1-0.5,2.3-0.8,3.7-1c1.4-0.2,2.9-0.3,4.5-0.3c2,0,3.7,0.2,5.2,0.5c1.5,0.3,2.7,0.9,3.7,1.6c1,0.8,1.7,1.7,2.2,3
		c0.5,1.2,0.7,2.7,0.7,4.5v14.3c0,0.8,0.1,1.4,0.2,1.9c0.1,0.5,0.3,0.9,0.6,1.2c0.3,0.3,0.6,0.5,1,0.6c0.4,0.1,1,0.2,1.6,0.2h0.2v3
		h-10.5l-1.2-3.9h-0.5c-0.6,0.8-1.2,1.4-1.8,2c-0.5,0.6-1.1,1-1.8,1.4c-0.6,0.4-1.3,0.6-2.1,0.8c-0.8,0.2-1.7,0.3-2.8,0.3
		c-1.2,0-2.4-0.2-3.5-0.6c-1.1-0.4-2-0.9-2.8-1.7c-0.8-0.8-1.4-1.7-1.9-2.9c-0.5-1.1-0.7-2.5-0.7-4.1c0-3.1,1-5.3,3.1-6.8
		c2.1-1.5,5.3-2.3,9.5-2.4l4.6-0.2v-3.1c0-0.9,0-1.8-0.1-2.6c-0.1-0.8-0.2-1.5-0.5-2c-0.2-0.6-0.6-1-1.1-1.3
		C211.2,464.8,210.5,464.7,209.8,464.7z M204.8,483.7c0,1.6,0.3,2.8,0.8,3.6s1.3,1.2,2.4,1.2c0.8,0,1.5-0.2,2.2-0.5
		c0.7-0.3,1.2-0.8,1.7-1.4c0.5-0.6,0.8-1.4,1.1-2.3c0.2-0.9,0.4-1.9,0.4-3v-4.2l-2.5,0.2c-1.1,0.1-2.1,0.2-2.8,0.5
		c-0.8,0.3-1.4,0.7-1.8,1.2c-0.5,0.5-0.8,1.2-1,1.9C204.9,481.8,204.8,482.7,204.8,483.7z"/>
	<path fill="#3E7D9B" d="M252.6,485.2c0,0.9,0.1,1.5,0.4,2.1c0.3,0.5,0.6,0.9,1,1.2c0.4,0.3,0.9,0.5,1.5,0.6s1.1,0.1,1.8,0.1h0.2v3
		h-10.9l-1.6-4.4h-0.5c-0.4,0.8-0.9,1.5-1.4,2.1c-0.5,0.6-1.2,1.1-1.9,1.6c-0.7,0.4-1.5,0.8-2.4,1c-0.9,0.2-1.9,0.3-3,0.3
		c-1.8,0-3.5-0.3-4.9-0.9s-2.6-1.6-3.6-2.8c-1-1.3-1.7-2.9-2.2-4.8c-0.5-2-0.8-4.3-0.8-7c0-2.7,0.3-5.1,0.8-7s1.2-3.6,2.2-4.9
		c1-1.3,2.2-2.3,3.6-2.9c1.4-0.6,3-0.9,4.8-0.9c1.1,0,2,0.1,2.9,0.3c0.9,0.2,1.6,0.5,2.3,0.9c0.7,0.4,1.3,0.9,1.8,1.4
		c0.5,0.5,1,1.2,1.4,1.8h0.4c-0.1-1-0.1-2-0.2-2.9c0-0.4,0-0.8-0.1-1.2c0-0.4-0.1-0.8-0.1-1.1c0-0.4,0-0.7-0.1-0.9
		c0-0.3,0-0.5,0-0.7v-3.1c0-0.8-0.1-1.4-0.4-1.9c-0.2-0.5-0.6-0.8-1-1.1c-0.4-0.2-0.9-0.4-1.4-0.5c-0.6-0.1-1.1-0.1-1.8-0.1h-0.4v-3
		h13.5L252.6,485.2L252.6,485.2z M238.3,488.5c1.1,0,2-0.2,2.8-0.7c0.7-0.5,1.3-1.2,1.8-2.1c0.4-1,0.8-2.1,0.9-3.6
		c0.2-1.4,0.3-3.1,0.3-5.1c0-1.9-0.1-3.5-0.3-4.9c-0.2-1.4-0.5-2.6-0.9-3.6c-0.4-1-1-1.7-1.8-2.2c-0.7-0.5-1.7-0.8-2.8-0.8
		c-0.9,0-1.7,0.3-2.4,0.8c-0.7,0.5-1.2,1.2-1.6,2.2c-0.4,1-0.7,2.2-0.9,3.6c-0.2,1.4-0.3,3.1-0.3,5c0,3.8,0.4,6.7,1.2,8.6
		C235.1,487.5,236.4,488.5,238.3,488.5z"/>
</g>
<g>
	<path fill="#3E7D9B" d="M269.7,492.7c-2.4,0-4.5-0.3-6.3-1c-1.8-0.7-3.3-1.7-4.6-3c-1.2-1.3-2.2-2.9-2.8-4.9
		c-0.6-1.9-0.9-4.1-0.9-6.6c0-2.6,0.3-5,0.9-6.9c0.6-2,1.5-3.7,2.7-5c1.2-1.3,2.7-2.3,4.4-3c1.7-0.7,3.7-1,5.9-1
		c2,0,3.9,0.3,5.5,0.9c1.6,0.6,3,1.4,4.1,2.6c1.1,1.1,2,2.5,2.6,4.2c0.6,1.7,0.9,3.6,0.9,5.9v2.9h-18.4c0.1,1.9,0.3,3.5,0.6,4.9
		c0.4,1.4,0.9,2.5,1.5,3.4c0.6,0.9,1.4,1.5,2.3,1.9c0.9,0.4,1.9,0.6,3.1,0.6c1,0,1.9-0.1,2.7-0.3s1.6-0.5,2.2-1
		c0.7-0.4,1.3-0.9,1.8-1.5c0.5-0.6,0.9-1.2,1.2-1.8c1,0.5,1.5,1.5,1.5,2.7c0,0.8-0.2,1.6-0.7,2.3s-1.1,1.4-2,1.9
		c-0.9,0.5-2.1,1-3.4,1.3C273.2,492.5,271.6,492.7,269.7,492.7z M269.2,464.9c-1.6,0-2.8,0.8-3.8,2.3c-0.9,1.6-1.4,3.8-1.5,6.8h9.7
		c0-1.4-0.1-2.7-0.2-3.8c-0.2-1.1-0.4-2.1-0.8-2.9c-0.4-0.8-0.8-1.4-1.4-1.8C270.7,465.1,270,464.9,269.2,464.9z"/>
</g>
<g>
	<path fill="#3E7D9B" d="M303.7,492.1v-18.5c0-1.2-0.1-2.3-0.2-3.2c-0.2-0.9-0.4-1.7-0.8-2.4c-0.4-0.6-0.8-1.1-1.4-1.5
		c-0.6-0.3-1.3-0.5-2.1-0.5c-0.9,0-1.7,0.2-2.3,0.7c-0.6,0.5-1.1,1.1-1.5,1.9s-0.6,1.7-0.8,2.8c-0.2,1.1-0.2,2.2-0.2,3.3v10.7
		c0,0.8,0.1,1.4,0.3,1.9c0.2,0.5,0.5,0.8,0.8,1.1c0.3,0.3,0.8,0.4,1.3,0.5c0.5,0.1,1.1,0.1,1.7,0.1h0.2v3h-17.3v-3h0.1
		c0.6,0,1.2,0,1.8-0.1c0.5-0.1,1-0.3,1.4-0.5c0.4-0.3,0.7-0.7,0.9-1.2c0.2-0.5,0.3-1.2,0.3-2v-16.8c0-0.8-0.1-1.4-0.3-1.9
		c-0.2-0.5-0.5-0.8-0.8-1.1c-0.4-0.3-0.8-0.4-1.3-0.5c-0.5-0.1-1.1-0.1-1.7-0.1h-0.2V462h11.8l0.7,4h0.3c0.6-1.1,1.2-1.9,1.8-2.5
		c0.6-0.6,1.3-1.1,2-1.4c0.7-0.3,1.5-0.5,2.3-0.6c0.8-0.1,1.6-0.1,2.5-0.1c2.1,0,3.8,0.4,5.3,1.1c1.5,0.7,2.5,1.9,3.2,3.6h0.5
		c0.6-1.1,1.2-1.9,1.9-2.5c0.7-0.6,1.4-1.1,2.1-1.4c0.8-0.3,1.6-0.5,2.4-0.6c0.8-0.1,1.7-0.1,2.6-0.1c1.4,0,2.7,0.2,3.9,0.6
		c1.2,0.4,2.1,1.1,2.9,2c0.8,0.9,1.4,2,1.8,3.4c0.4,1.4,0.6,3,0.6,4.9v13.1c0,0.9,0.1,1.6,0.2,2.1s0.4,0.9,0.7,1.2
		c0.3,0.3,0.7,0.5,1.2,0.6c0.5,0.1,1,0.1,1.6,0.1h0.2v3h-12.5v-18.5c0-2.4-0.3-4.3-1-5.6c-0.7-1.3-1.8-2-3.5-2
		c-0.9,0-1.6,0.2-2.3,0.6c-0.6,0.4-1.1,1-1.5,1.7c-0.4,0.7-0.7,1.6-0.9,2.6c-0.2,1-0.3,2-0.3,3.1v11.1c0,0.9,0.1,1.6,0.2,2.1
		s0.4,0.9,0.7,1.2c0.3,0.3,0.7,0.5,1.2,0.6c0.5,0.1,1,0.1,1.7,0.1h0.2v3L303.7,492.1L303.7,492.1L303.7,492.1z"/>
</g>
<g>
	<path fill="#3E7D9B" d="M362.5,462v3c-0.6,0-1.1,0.1-1.5,0.2c-0.4,0.1-0.8,0.4-1.2,0.7c-0.3,0.3-0.7,0.7-1,1.3s-0.6,1.2-0.9,2
		c-0.7,1.9-1.3,3.8-2.1,5.7c-0.7,1.9-1.4,3.9-2.2,5.8c-0.7,2-1.4,3.9-2.2,5.8c-0.7,1.9-1.4,3.8-2.1,5.7c-0.7,1.8-1.3,3.4-1.9,4.8
		c-0.6,1.4-1.2,2.6-1.9,3.6c-0.6,1-1.4,1.8-2.2,2.5s-1.7,1.2-2.7,1.6c-1,0.4-2.3,0.7-3.6,0.8c-1.4,0.2-3,0.2-4.8,0.2h-1v-3.3
		c2,0,3.6-0.2,5-0.7s2.5-1.2,3.5-2c1-0.9,1.7-1.9,2.3-3.2c0.6-1.2,1.1-2.6,1.6-4.1l-10.1-24.8c-0.2-0.5-0.5-1-0.7-1.3
		c-0.3-0.3-0.6-0.6-0.9-0.7c-0.3-0.2-0.6-0.3-1-0.3c-0.4,0-0.8-0.1-1.2-0.1V462h16v3c-1.1,0-2,0.1-2.6,0.4s-0.9,0.8-0.9,1.7
		c0,0.3,0.1,0.7,0.2,1.1c0.1,0.4,0.2,0.8,0.4,1.1c0.3,0.8,0.7,1.6,1,2.6c0.4,0.9,0.7,1.9,1,2.8c0.3,0.9,0.7,1.8,1,2.7
		c0.3,0.9,0.6,1.6,0.8,2.3c0.3,0.7,0.5,1.4,0.7,1.9s0.3,1.1,0.5,1.6c0.1,0.5,0.2,0.9,0.3,1.3c0.1,0.4,0.1,0.8,0.2,1.2
		c0-0.4,0.1-0.8,0.2-1.3c0.1-0.5,0.2-0.9,0.4-1.3s0.3-0.8,0.4-1.2c0.1-0.3,0.2-0.6,0.3-0.7l3.7-11c0.1-0.2,0.1-0.4,0.2-0.6
		c0.1-0.2,0.1-0.5,0.2-0.8c0.1-0.3,0.1-0.5,0.1-0.7c0-0.2,0-0.4,0-0.6c0-0.9-0.4-1.5-1.1-1.8c-0.7-0.3-1.7-0.5-3-0.5v-3H362.5
		L362.5,462z"/>
</g>
<g>
	<path fill="#374449" d="M273.7,458.4h-16.3v-2.6h0.1c0.6,0,1.1,0,1.5-0.1c0.5-0.1,0.9-0.2,1.2-0.5c0.3-0.2,0.6-0.6,0.8-1.1
		c0.2-0.5,0.3-1.1,0.3-1.8v-14.1c0-0.7-0.1-1.3-0.2-1.7c-0.2-0.4-0.4-0.8-0.7-1c-0.3-0.2-0.7-0.4-1.1-0.5c-0.4-0.1-0.9-0.1-1.5-0.1
		h-0.1v-2.6h9.9l1,3.8h0.2c0.3-0.7,0.7-1.4,1-1.9c0.4-0.5,0.8-1,1.4-1.4c0.5-0.4,1.2-0.6,1.9-0.8c0.7-0.2,1.6-0.3,2.6-0.3
		c1.9,0,3.3,0.3,4.2,1c0.9,0.7,1.4,1.7,1.4,2.9c0,1.5-0.5,2.7-1.6,3.5c-1.1,0.8-2.6,1.2-4.6,1.2c0-0.7,0-1.3-0.1-1.8
		c-0.1-0.5-0.2-0.9-0.4-1.3c-0.2-0.3-0.4-0.6-0.7-0.8c-0.3-0.2-0.7-0.3-1.2-0.3c-0.6,0-1.1,0.1-1.5,0.4c-0.4,0.3-0.8,0.7-1,1.1
		s-0.5,1-0.7,1.5c-0.2,0.6-0.3,1.1-0.4,1.7c-0.1,0.6-0.2,1.1-0.2,1.7c0,0.5,0,1,0,1.4v8.4c0,0.7,0.1,1.3,0.3,1.7
		c0.2,0.4,0.4,0.8,0.7,1c0.3,0.2,0.7,0.4,1.1,0.4c0.4,0.1,0.9,0.1,1.3,0.1h1.6L273.7,458.4C273.7,458.4,273.7,458.4,273.7,458.4z"/>
</g>
<g>
	<path fill="#374449" d="M305.6,445.2c0,4.6-1.1,8-3.2,10.3c-2.2,2.3-5.3,3.4-9.5,3.4c-2,0-3.7-0.3-5.3-0.8s-2.9-1.4-4-2.5
		c-1.1-1.1-1.9-2.5-2.5-4.3c-0.6-1.7-0.9-3.7-0.9-6c0-4.6,1.1-8,3.2-10.2c2.2-2.2,5.3-3.4,9.5-3.4c2,0,3.7,0.3,5.3,0.8
		c1.5,0.6,2.9,1.4,4,2.5c1.1,1.1,1.9,2.5,2.5,4.3C305.3,440.9,305.6,442.9,305.6,445.2z M287.9,445.2c0,1.7,0.1,3.3,0.3,4.6
		c0.2,1.3,0.5,2.4,0.9,3.3c0.4,0.9,0.9,1.6,1.6,2c0.7,0.5,1.4,0.7,2.4,0.7c0.9,0,1.7-0.2,2.4-0.7c0.6-0.5,1.2-1.1,1.6-2
		c0.4-0.9,0.7-2,0.9-3.3c0.2-1.3,0.3-2.8,0.3-4.6c0-1.7-0.1-3.3-0.3-4.6c-0.2-1.3-0.5-2.4-0.9-3.3c-0.4-0.9-0.9-1.5-1.6-2
		c-0.7-0.4-1.4-0.7-2.4-0.7c-0.9,0-1.7,0.2-2.4,0.7c-0.7,0.4-1.2,1.1-1.6,2c-0.4,0.9-0.7,2-0.9,3.3
		C287.9,441.9,287.9,443.5,287.9,445.2z"/>
</g>
<g>
	<path fill="#374449" d="M324.6,458.4l-1.1-3.5h-0.2c-0.5,0.8-1,1.5-1.6,2c-0.6,0.5-1.2,0.9-1.8,1.2c-0.7,0.3-1.3,0.5-2.1,0.6
		s-1.5,0.1-2.2,0.1c-2.5,0-4.5-0.8-5.8-2.4c-1.4-1.6-2-4-2-7.3v-10.9c0-0.7-0.1-1.3-0.2-1.7c-0.1-0.4-0.3-0.8-0.6-1
		c-0.3-0.3-0.6-0.4-1-0.5c-0.4-0.1-0.9-0.1-1.5-0.1h-0.1v-2.6h10.8v15.6c0,1,0.1,2,0.2,2.8c0.1,0.8,0.3,1.6,0.6,2.2
		c0.3,0.6,0.7,1.1,1.1,1.4c0.5,0.3,1.1,0.5,1.8,0.5c0.8,0,1.4-0.2,2-0.5c0.6-0.3,1-0.8,1.4-1.5c0.4-0.6,0.6-1.4,0.8-2.3
		c0.2-0.9,0.2-1.9,0.2-3.1v-9.4c0-0.7-0.1-1.3-0.3-1.7c-0.2-0.4-0.4-0.7-0.8-0.9c-0.3-0.2-0.7-0.4-1.1-0.4c-0.4-0.1-0.9-0.1-1.4-0.1
		h-0.1v-2.6h11.1v20.5c0,0.7,0.1,1.3,0.2,1.7c0.2,0.4,0.4,0.7,0.7,0.9c0.3,0.2,0.6,0.3,1,0.4s0.8,0.1,1.3,0.1h0.4v2.6L324.6,458.4
		L324.6,458.4L324.6,458.4z"/>
	<path fill="#374449" d="M355.8,436.3c0-0.6-0.2-1-0.7-1.2c-0.5-0.2-1.1-0.3-1.8-0.3h-0.1v-2.6h11.3v2.6H364c-0.5,0-0.9,0-1.3,0.1
		c-0.4,0.1-0.7,0.2-1.1,0.5c-0.4,0.2-0.8,0.5-1.2,1c-0.4,0.4-0.9,0.9-1.4,1.6l-5,6.1l7.2,9.1c0.7,0.9,1.4,1.6,2.1,2
		c0.6,0.4,1.2,0.6,1.8,0.6h0.6v2.6h-15.5v-2.6h0.3c2,0,2.9-0.5,2.9-1.6c0-0.2,0-0.4-0.1-0.6c0-0.2-0.1-0.4-0.3-0.7
		c-0.1-0.3-0.3-0.6-0.6-0.9c-0.2-0.3-0.6-0.8-1-1.2l-2.8-3.4l-3.4,4.2c-0.3,0.4-0.5,0.8-0.7,1.2c-0.2,0.4-0.3,0.8-0.3,1.2
		c0,0.5,0.2,0.9,0.7,1.2c0.5,0.3,1.2,0.4,2.3,0.4h0.1v2.6h-12.4v-2.6h0.4c0.6,0,1.1-0.1,1.5-0.2c0.4-0.1,0.9-0.3,1.2-0.5
		c0.4-0.2,0.8-0.6,1.2-1c0.4-0.4,0.8-0.9,1.3-1.5l6.1-7.4l-6.1-7.9c-0.7-0.9-1.4-1.5-2-1.9c-0.7-0.4-1.4-0.6-2.1-0.6h-0.6v-2.6h15.3
		v2.6h-0.2c-0.6,0-1,0-1.4,0.1s-0.6,0.2-0.8,0.3s-0.3,0.3-0.4,0.5c-0.1,0.2-0.1,0.4-0.1,0.5c0,0.3,0.1,0.7,0.3,1
		c0.2,0.3,0.5,0.7,0.9,1.2l2.7,3.3l2.3-2.8c0.4-0.5,0.7-1,0.9-1.4C355.7,437.2,355.8,436.7,355.8,436.3z"/>
</g>
<circle fill="#FDF6E4" cx="170.6" cy="368.7" r="13.7"/>
<circle fill="#FDF6E4" cx="201.8" cy="368.7" r="13.7"/>
<circle fill="#FDF6E4" cx="233.1" cy="368.7" r="13.7"/>
<circle fill="#FDF6E4" cx="170.6" cy="398.7" r="13.7"/>
<circle fill="#3E7D9B" cx="201.8" cy="398.7" r="13.7"/>
<circle fill="#FDF6E4" cx="233.1" cy="398.7" r="13.7"/>
<circle fill="#3E7D9B" cx="170.6" cy="428.7" r="13.7"/>
<circle fill="#3E7D9B" cx="201.8" cy="428.7" r="13.7"/>
<circle fill="#FDF6E4" cx="233.1" cy="428.7" r="13.7"/>
</svg>
